<mxfile host="Electron" agent="Mozilla/5.0 (X11; Linux x86_64) AppleWebKit/537.36 (KHTML, like Gecko) draw.io/27.0.9 Chrome/134.0.6998.205 Electron/35.4.0 Safari/537.36" version="27.0.9">
  <diagram name="SageScript Architecture" id="cWx_ews5oz7RWVx2IVs1">
    <mxGraphModel dx="837" dy="501" grid="1" gridSize="10" guides="1" tooltips="1" connect="1" arrows="1" fold="1" page="1" pageScale="1" pageWidth="850" pageHeight="1100" math="0" shadow="0">
      <root>
        <mxCell id="0" />
        <mxCell id="1" parent="0" />
        <mxCell id="q1I-p0KtZNFjZsy3f3up-1" value="main.py (CLI Orchestrator)" style="rounded=1;whiteSpace=wrap;html=1;fillColor=#f8cecc;strokeColor=#b85450;" vertex="1" parent="1">
          <mxGeometry x="320" y="40" width="180" height="60" as="geometry" />
        </mxCell>
        <mxCell id="q1I-p0KtZNFjZsy3f3up-2" value="src/" style="swimlane;whiteSpace=wrap;html=1;fillColor=#dae8fc;strokeColor=#6c8ebf;" vertex="1" parent="1">
          <mxGeometry x="40" y="140" width="700" height="340" as="geometry" />
        </mxCell>
        <mxCell id="q1I-p0KtZNFjZsy3f3up-3" value="utils/" style="rounded=1;whiteSpace=wrap;html=1;fillColor=#fff2cc;strokeColor=#d6b656;" vertex="1" parent="q1I-p0KtZNFjZsy3f3up-2">
          <mxGeometry x="20" y="40" width="140" height="60" as="geometry" />
        </mxCell>
        <mxCell id="q1I-p0KtZNFjZsy3f3up-4" value="• file_utils.py&#xa;• cli_utils.py" style="text;html=1;strokeColor=none;fillColor=none;" vertex="1" parent="q1I-p0KtZNFjZsy3f3up-3">
          <mxGeometry x="10" y="40" width="120" height="40" as="geometry" />
        </mxCell>
        <mxCell id="q1I-p0KtZNFjZsy3f3up-5" value="processing/" style="rounded=1;whiteSpace=wrap;html=1;fillColor=#e1d5e7;strokeColor=#9673a6;" vertex="1" parent="q1I-p0KtZNFjZsy3f3up-2">
          <mxGeometry x="180" y="40" width="160" height="60" as="geometry" />
        </mxCell>
        <mxCell id="q1I-p0KtZNFjZsy3f3up-6" value="• image_processing.py&#xa;• text_processing.py" style="text;html=1;strokeColor=none;fillColor=none;" vertex="1" parent="q1I-p0KtZNFjZsy3f3up-5">
          <mxGeometry x="10" y="40" width="140" height="40" as="geometry" />
        </mxCell>
        <mxCell id="q1I-p0KtZNFjZsy3f3up-7" value="codegen/" style="rounded=1;whiteSpace=wrap;html=1;fillColor=#d5e8d4;strokeColor=#82b366;" vertex="1" parent="q1I-p0KtZNFjZsy3f3up-2">
          <mxGeometry x="360" y="40" width="160" height="60" as="geometry" />
        </mxCell>
        <mxCell id="q1I-p0KtZNFjZsy3f3up-8" value="• code_generator.py&#xa;• config_patterns.py" style="text;html=1;strokeColor=none;fillColor=none;" vertex="1" parent="q1I-p0KtZNFjZsy3f3up-7">
          <mxGeometry x="10" y="40" width="140" height="40" as="geometry" />
        </mxCell>
        <mxCell id="q1I-p0KtZNFjZsy3f3up-9" value="langchain_integration/" style="rounded=1;whiteSpace=wrap;html=1;fillColor=#f8cecc;strokeColor=#b85450;" vertex="1" parent="q1I-p0KtZNFjZsy3f3up-2">
          <mxGeometry x="540" y="40" width="140" height="60" as="geometry" />
        </mxCell>
        <mxCell id="q1I-p0KtZNFjZsy3f3up-10" value="• langchain_client.py" style="text;html=1;strokeColor=none;fillColor=none;" vertex="1" parent="q1I-p0KtZNFjZsy3f3up-9">
          <mxGeometry x="10" y="40" width="120" height="20" as="geometry" />
        </mxCell>
        <mxCell id="q1I-p0KtZNFjZsy3f3up-11" value="config/" style="rounded=1;whiteSpace=wrap;html=1;fillColor=#ffe6cc;strokeColor=#d79b00;" vertex="1" parent="q1I-p0KtZNFjZsy3f3up-2">
          <mxGeometry x="20" y="120" width="140" height="60" as="geometry" />
        </mxCell>
        <mxCell id="q1I-p0KtZNFjZsy3f3up-12" value="• settings.yaml&#xa;• config_loader.py" style="text;html=1;strokeColor=none;fillColor=none;" vertex="1" parent="q1I-p0KtZNFjZsy3f3up-11">
          <mxGeometry x="10" y="40" width="120" height="40" as="geometry" />
        </mxCell>
        <mxCell id="q1I-p0KtZNFjZsy3f3up-13" style="edgeStyle=orthogonalEdgeStyle;rounded=0;orthogonalLoop=1;jettySize=auto;html=1;endArrow=block;endFill=1;" edge="1" parent="q1I-p0KtZNFjZsy3f3up-2" source="q1I-p0KtZNFjZsy3f3up-2" target="q1I-p0KtZNFjZsy3f3up-3">
          <mxGeometry relative="1" as="geometry" />
        </mxCell>
        <mxCell id="q1I-p0KtZNFjZsy3f3up-14" style="edgeStyle=orthogonalEdgeStyle;rounded=0;orthogonalLoop=1;jettySize=auto;html=1;endArrow=block;endFill=1;" edge="1" parent="q1I-p0KtZNFjZsy3f3up-2" source="q1I-p0KtZNFjZsy3f3up-2" target="q1I-p0KtZNFjZsy3f3up-5">
          <mxGeometry relative="1" as="geometry" />
        </mxCell>
        <mxCell id="q1I-p0KtZNFjZsy3f3up-15" style="edgeStyle=orthogonalEdgeStyle;rounded=0;orthogonalLoop=1;jettySize=auto;html=1;endArrow=block;endFill=1;" edge="1" parent="q1I-p0KtZNFjZsy3f3up-2" source="q1I-p0KtZNFjZsy3f3up-2" target="q1I-p0KtZNFjZsy3f3up-7">
          <mxGeometry relative="1" as="geometry" />
        </mxCell>
        <mxCell id="q1I-p0KtZNFjZsy3f3up-16" style="edgeStyle=orthogonalEdgeStyle;rounded=0;orthogonalLoop=1;jettySize=auto;html=1;endArrow=block;endFill=1;" edge="1" parent="q1I-p0KtZNFjZsy3f3up-2" source="q1I-p0KtZNFjZsy3f3up-2" target="q1I-p0KtZNFjZsy3f3up-9">
          <mxGeometry relative="1" as="geometry" />
        </mxCell>
        <mxCell id="q1I-p0KtZNFjZsy3f3up-17" style="edgeStyle=orthogonalEdgeStyle;rounded=0;orthogonalLoop=1;jettySize=auto;html=1;endArrow=block;endFill=1;" edge="1" parent="q1I-p0KtZNFjZsy3f3up-2" source="q1I-p0KtZNFjZsy3f3up-2" target="q1I-p0KtZNFjZsy3f3up-11">
          <mxGeometry relative="1" as="geometry" />
        </mxCell>
        <mxCell id="q1I-p0KtZNFjZsy3f3up-18" style="edgeStyle=orthogonalEdgeStyle;rounded=0;orthogonalLoop=1;jettySize=auto;html=1;endArrow=block;endFill=1;" edge="1" parent="1" source="q1I-p0KtZNFjZsy3f3up-1" target="q1I-p0KtZNFjZsy3f3up-2">
          <mxGeometry relative="1" as="geometry" />
        </mxCell>
      </root>
    </mxGraphModel>
  </diagram>
</mxfile>
